# xmcd CD database file
#
# Track frame offsets:
#	150
#	19478
#	35377
#	55150
#	75314
#	95039
#	115771
#	139315
#	153869
#	168724
#
# Disc length: 2537 seconds
#
# Revision: 1
# Processed by: cddbd v1.5.2PL0 Copyright (c) Steve Scherf et al.
# Submitted via: CDex 1.70beta2
#
DISCID=7d09e70a
DTITLE=Ken Johnson - Dance with The Moon
DYEAR=1996
DGENRE=New Age
TTITLE0=Morning Sun
TTITLE1=Rain - thunder and rain
TTITLE2=Moon - frog chorus
TTITLE3=Evensong - waves and gull
TTITLE4=The Sands of Time
TTITLE5=Love Stays - Mourning Doves
TTITLE6=Dance with The Moon - Boreal Owl
TTITLE7=Reminiscence - loons
TTITLE8=Old Folks' Song
TTITLE9=Ode To Life - waves and gull
EXTD=YEAR: 1996
EXTT0=
EXTT1=
EXTT2=
EXTT3=
EXTT4=
EXTT5=
EXTT6=
EXTT7=
EXTT8=
EXTT9=
PLAYORDER=
